<?xml version="1.0" encoding="utf-8"?>
<!-- Svg Vector Icons : http://www.onlinewebfonts.com/icon -->
<!DOCTYPE svg PUBLIC "-//W3C//DTD SVG 1.1//EN" "http://www.w3.org/Graphics/SVG/1.1/DTD/svg11.dtd">
<svg version="1.1" xmlns="http://www.w3.org/2000/svg" xmlns:xlink="http://www.w3.org/1999/xlink" x="0px" y="0px" viewBox="0 0 256 256" enable-background="new 0 0 256 256" xml:space="preserve">
<metadata> Svg Vector Icons : http://www.onlinewebfonts.com/icon </metadata>
<g><g><g><path fill="#fff" d="M87.5,170.5c6.5,13.8,16.2,26.9,28.8,39.2c-25.2-3.7-46.5-18.6-58.9-39.5L87.5,170.5z M115.8,47c-24.2,3.7-45,17.9-57.5,38l29.1,0.3C93.9,71.7,103.4,58.9,115.8,47z M125.6,85.7l0.4-39.6c0,0-0.1,0-0.1,0C112,58.2,101.4,71.4,94.4,85.3L125.6,85.7z M58.4,97.9l-5.8,0l-5.7-0.1l-0.5,41.1l-23-41.4L17,97.5l-6.4-0.1L10,155.9l5.7,0.1l5.7,0l0.5-42.2l23.7,42.4l6.1,0.1l6.1,0.1L58.4,97.9z M113,108.9l0-5.2l0.1-5.2l-43.1-0.5l-0.6,58.5l44.4,0.5l0-5.2l0-5.2l-32.2-0.3l0.2-15.3l28.6,0.3l0-5l0-5.1L82.1,121l0.1-12.4L113,108.9z M171.4,141.7L171.4,141.7l-8-42.6l-6.5-0.1l-6.5-0.1l-8.8,42.7l-9.3-42.9l-6.4-0.1l-6.4-0.1l15.7,58.7l5.8,0.1l5.8,0.1l9.7-46l8.9,46.2l5.8,0.1l5.8,0L194,99.4l-6.2-0.1l-6.2-0.1L171.4,141.7z M132.3,46.1C132.3,46.1,132.2,46.1,132.3,46.1l-0.5,39.6l31.3,0.3C156.2,72,146,58.6,132.3,46.1z M199,86.4c-12-20.3-32.5-35-56.7-39.2c12.2,12.2,21.4,25.2,27.5,38.9L199,86.4z M138.4,209.9c25.2-3.1,46.8-17.6,59.7-38.3l-30-0.3C161.3,185,151.3,197.9,138.4,209.9z M161.2,171.3l-30.3-0.3l-0.4,37.8C143.8,197.1,154.1,184.5,161.2,171.3z M241.9,130.2c-2.9-2.5-8.5-4.8-17-6.8c-5.9-1.4-9.7-2.6-11.5-3.5c-1.8-1-2.7-2.3-2.7-4.1c0-2.4,0.9-4.4,2.7-5.7c1.8-1.3,4.2-2,7.3-1.9c3.6,0,6.5,0.9,8.7,2.5c2.2,1.6,3.4,3.9,3.6,6.6l11.9,0.1c-0.4-5.9-2.6-10.5-6.7-14c-4.1-3.5-9.4-5.3-15.9-5.3c-7-0.1-12.6,1.5-16.7,4.8c-4.1,3.3-6.2,7.8-6.3,13.5c0,5.1,1.4,8.8,4.5,11.2c3.1,2.4,9.3,4.7,18.5,6.9c5,1.2,8.3,2.3,9.8,3.3c1.5,1.1,2.3,2.7,2.3,4.9c0,2.2-1.2,4-3.3,5.2c-2.2,1.2-5.3,1.8-9.2,1.8c-3.8,0-6.7-0.9-8.8-2.6c-2.1-1.7-3.2-4.1-3.3-7.2l-11.8-0.1c0.2,6.3,2.4,11.2,6.5,14.7c4.1,3.5,9.9,5.3,17.3,5.3c7.4,0.1,13.2-1.4,17.6-4.6c4.4-3.2,6.6-7.5,6.6-13C246.1,136.7,244.7,132.7,241.9,130.2z M124.3,208.6l0.4-37.8l-30.3-0.3C101.2,183.9,111.2,196.8,124.3,208.6z"/></g><g></g><g></g><g></g><g></g><g></g><g></g><g></g><g></g><g></g><g></g><g></g><g></g><g></g><g></g><g></g></g></g>
</svg>